<mxfile host="Electron" agent="Mozilla/5.0 (Windows NT 10.0; Win64; x64) AppleWebKit/537.36 (KHTML, like Gecko) draw.io/27.0.9 Chrome/134.0.6998.205 Electron/35.4.0 Safari/537.36" version="27.0.9">
  <diagram name="Page-1" id="7ptNukBm3sWM4PbcHord">
    <mxGraphModel dx="1803" dy="858" grid="1" gridSize="10" guides="1" tooltips="1" connect="1" arrows="1" fold="1" page="1" pageScale="1" pageWidth="850" pageHeight="1100" math="0" shadow="0">
      <root>
        <mxCell id="0" />
        <mxCell id="1" parent="0" />
        <mxCell id="cHA2GrPYjUbOb7WszTmD-79" style="edgeStyle=orthogonalEdgeStyle;rounded=0;orthogonalLoop=1;jettySize=auto;html=1;entryX=0;entryY=0.5;entryDx=0;entryDy=0;shape=link;" edge="1" parent="1" source="cHA2GrPYjUbOb7WszTmD-1" target="cHA2GrPYjUbOb7WszTmD-80">
          <mxGeometry relative="1" as="geometry">
            <mxPoint x="-310" y="500" as="targetPoint" />
            <Array as="points">
              <mxPoint x="-290" y="330" />
            </Array>
          </mxGeometry>
        </mxCell>
        <mxCell id="cHA2GrPYjUbOb7WszTmD-87" style="edgeStyle=orthogonalEdgeStyle;rounded=0;orthogonalLoop=1;jettySize=auto;html=1;entryX=0;entryY=0.5;entryDx=0;entryDy=0;shape=link;" edge="1" parent="1" source="cHA2GrPYjUbOb7WszTmD-1" target="cHA2GrPYjUbOb7WszTmD-84">
          <mxGeometry relative="1" as="geometry">
            <Array as="points">
              <mxPoint x="-300" y="440" />
            </Array>
          </mxGeometry>
        </mxCell>
        <mxCell id="cHA2GrPYjUbOb7WszTmD-95" style="edgeStyle=orthogonalEdgeStyle;rounded=0;orthogonalLoop=1;jettySize=auto;html=1;entryX=0.5;entryY=0;entryDx=0;entryDy=0;" edge="1" parent="1" source="cHA2GrPYjUbOb7WszTmD-1" target="cHA2GrPYjUbOb7WszTmD-93">
          <mxGeometry relative="1" as="geometry">
            <Array as="points">
              <mxPoint x="-320" y="400" />
              <mxPoint x="-390" y="400" />
            </Array>
          </mxGeometry>
        </mxCell>
        <mxCell id="cHA2GrPYjUbOb7WszTmD-105" style="edgeStyle=orthogonalEdgeStyle;rounded=0;orthogonalLoop=1;jettySize=auto;html=1;entryX=1;entryY=0.5;entryDx=0;entryDy=0;" edge="1" parent="1" source="cHA2GrPYjUbOb7WszTmD-1" target="cHA2GrPYjUbOb7WszTmD-104">
          <mxGeometry relative="1" as="geometry">
            <Array as="points">
              <mxPoint x="-340" y="350" />
              <mxPoint x="-510" y="350" />
            </Array>
          </mxGeometry>
        </mxCell>
        <mxCell id="cHA2GrPYjUbOb7WszTmD-166" style="edgeStyle=orthogonalEdgeStyle;rounded=0;orthogonalLoop=1;jettySize=auto;html=1;entryX=0.5;entryY=1;entryDx=0;entryDy=0;shape=link;" edge="1" parent="1" source="cHA2GrPYjUbOb7WszTmD-1" target="cHA2GrPYjUbOb7WszTmD-76">
          <mxGeometry relative="1" as="geometry">
            <Array as="points">
              <mxPoint x="-170" y="240" />
              <mxPoint x="-170" y="260" />
              <mxPoint x="-50" y="260" />
            </Array>
          </mxGeometry>
        </mxCell>
        <mxCell id="cHA2GrPYjUbOb7WszTmD-1" value="Employee" style="rounded=0;whiteSpace=wrap;html=1;" vertex="1" parent="1">
          <mxGeometry x="-370" y="210" width="120" height="60" as="geometry" />
        </mxCell>
        <mxCell id="cHA2GrPYjUbOb7WszTmD-2" value="&lt;u&gt;Emp_id&lt;/u&gt;" style="ellipse;whiteSpace=wrap;html=1;" vertex="1" parent="1">
          <mxGeometry x="-550" y="210" width="80" height="50" as="geometry" />
        </mxCell>
        <mxCell id="cHA2GrPYjUbOb7WszTmD-4" value="Name" style="ellipse;whiteSpace=wrap;html=1;" vertex="1" parent="1">
          <mxGeometry x="-180" y="90" width="80" height="50" as="geometry" />
        </mxCell>
        <mxCell id="cHA2GrPYjUbOb7WszTmD-29" style="edgeStyle=orthogonalEdgeStyle;rounded=0;orthogonalLoop=1;jettySize=auto;html=1;entryX=1;entryY=0.5;entryDx=0;entryDy=0;" edge="1" parent="1" source="cHA2GrPYjUbOb7WszTmD-5" target="cHA2GrPYjUbOb7WszTmD-4">
          <mxGeometry relative="1" as="geometry" />
        </mxCell>
        <mxCell id="cHA2GrPYjUbOb7WszTmD-5" value="Fname" style="ellipse;whiteSpace=wrap;html=1;" vertex="1" parent="1">
          <mxGeometry x="-60" y="90" width="80" height="50" as="geometry" />
        </mxCell>
        <mxCell id="cHA2GrPYjUbOb7WszTmD-28" style="edgeStyle=orthogonalEdgeStyle;rounded=0;orthogonalLoop=1;jettySize=auto;html=1;entryX=1;entryY=0.5;entryDx=0;entryDy=0;" edge="1" parent="1" source="cHA2GrPYjUbOb7WszTmD-6" target="cHA2GrPYjUbOb7WszTmD-4">
          <mxGeometry relative="1" as="geometry" />
        </mxCell>
        <mxCell id="cHA2GrPYjUbOb7WszTmD-6" value="Lname" style="ellipse;whiteSpace=wrap;html=1;" vertex="1" parent="1">
          <mxGeometry x="-60" y="10" width="80" height="50" as="geometry" />
        </mxCell>
        <mxCell id="cHA2GrPYjUbOb7WszTmD-10" value="salery" style="ellipse;whiteSpace=wrap;html=1;" vertex="1" parent="1">
          <mxGeometry x="-510" y="90" width="80" height="50" as="geometry" />
        </mxCell>
        <mxCell id="cHA2GrPYjUbOb7WszTmD-22" style="edgeStyle=orthogonalEdgeStyle;rounded=0;orthogonalLoop=1;jettySize=auto;html=1;entryX=0;entryY=0.75;entryDx=0;entryDy=0;" edge="1" parent="1" source="cHA2GrPYjUbOb7WszTmD-14" target="cHA2GrPYjUbOb7WszTmD-1">
          <mxGeometry relative="1" as="geometry" />
        </mxCell>
        <mxCell id="cHA2GrPYjUbOb7WszTmD-14" value="dateofbirth" style="ellipse;whiteSpace=wrap;html=1;" vertex="1" parent="1">
          <mxGeometry x="-520" y="150" width="80" height="50" as="geometry" />
        </mxCell>
        <mxCell id="cHA2GrPYjUbOb7WszTmD-25" style="edgeStyle=orthogonalEdgeStyle;rounded=0;orthogonalLoop=1;jettySize=auto;html=1;entryX=0.25;entryY=0;entryDx=0;entryDy=0;" edge="1" parent="1" source="cHA2GrPYjUbOb7WszTmD-17" target="cHA2GrPYjUbOb7WszTmD-1">
          <mxGeometry relative="1" as="geometry" />
        </mxCell>
        <mxCell id="cHA2GrPYjUbOb7WszTmD-17" value="Bouns" style="ellipse;whiteSpace=wrap;html=1;" vertex="1" parent="1">
          <mxGeometry x="-380" y="100" width="80" height="50" as="geometry" />
        </mxCell>
        <mxCell id="cHA2GrPYjUbOb7WszTmD-26" style="edgeStyle=orthogonalEdgeStyle;rounded=0;orthogonalLoop=1;jettySize=auto;html=1;entryX=0.5;entryY=0;entryDx=0;entryDy=0;" edge="1" parent="1" source="cHA2GrPYjUbOb7WszTmD-18" target="cHA2GrPYjUbOb7WszTmD-1">
          <mxGeometry relative="1" as="geometry">
            <Array as="points">
              <mxPoint x="-290" y="125" />
              <mxPoint x="-290" y="180" />
              <mxPoint x="-310" y="180" />
            </Array>
          </mxGeometry>
        </mxCell>
        <mxCell id="cHA2GrPYjUbOb7WszTmD-18" value="Address" style="ellipse;whiteSpace=wrap;html=1;" vertex="1" parent="1">
          <mxGeometry x="-270" y="100" width="80" height="50" as="geometry" />
        </mxCell>
        <mxCell id="cHA2GrPYjUbOb7WszTmD-19" value="Phone&amp;nbsp;&lt;br&gt;number" style="ellipse;whiteSpace=wrap;html=1;" vertex="1" parent="1">
          <mxGeometry x="-420" y="10" width="80" height="50" as="geometry" />
        </mxCell>
        <mxCell id="cHA2GrPYjUbOb7WszTmD-21" style="edgeStyle=orthogonalEdgeStyle;rounded=0;orthogonalLoop=1;jettySize=auto;html=1;entryX=0.211;entryY=1.025;entryDx=0;entryDy=0;entryPerimeter=0;" edge="1" parent="1" source="cHA2GrPYjUbOb7WszTmD-2" target="cHA2GrPYjUbOb7WszTmD-1">
          <mxGeometry relative="1" as="geometry">
            <Array as="points">
              <mxPoint x="-380" y="260" />
              <mxPoint x="-380" y="271" />
            </Array>
          </mxGeometry>
        </mxCell>
        <mxCell id="cHA2GrPYjUbOb7WszTmD-23" style="edgeStyle=orthogonalEdgeStyle;rounded=0;orthogonalLoop=1;jettySize=auto;html=1;entryX=-0.025;entryY=0.358;entryDx=0;entryDy=0;entryPerimeter=0;" edge="1" parent="1" source="cHA2GrPYjUbOb7WszTmD-10" target="cHA2GrPYjUbOb7WszTmD-1">
          <mxGeometry relative="1" as="geometry">
            <Array as="points">
              <mxPoint x="-430" y="160" />
              <mxPoint x="-373" y="160" />
            </Array>
          </mxGeometry>
        </mxCell>
        <mxCell id="cHA2GrPYjUbOb7WszTmD-24" style="edgeStyle=orthogonalEdgeStyle;rounded=0;orthogonalLoop=1;jettySize=auto;html=1;entryX=0.128;entryY=-0.017;entryDx=0;entryDy=0;entryPerimeter=0;" edge="1" parent="1" source="cHA2GrPYjUbOb7WszTmD-19" target="cHA2GrPYjUbOb7WszTmD-1">
          <mxGeometry relative="1" as="geometry">
            <Array as="points">
              <mxPoint x="-400" y="160" />
              <mxPoint x="-355" y="160" />
            </Array>
          </mxGeometry>
        </mxCell>
        <mxCell id="cHA2GrPYjUbOb7WszTmD-27" style="edgeStyle=orthogonalEdgeStyle;rounded=0;orthogonalLoop=1;jettySize=auto;html=1;entryX=0.906;entryY=0.025;entryDx=0;entryDy=0;entryPerimeter=0;" edge="1" parent="1" source="cHA2GrPYjUbOb7WszTmD-4" target="cHA2GrPYjUbOb7WszTmD-1">
          <mxGeometry relative="1" as="geometry">
            <Array as="points">
              <mxPoint x="-120" y="160" />
              <mxPoint x="-261" y="160" />
            </Array>
          </mxGeometry>
        </mxCell>
        <mxCell id="cHA2GrPYjUbOb7WszTmD-30" value="Floor" style="rounded=0;whiteSpace=wrap;html=1;" vertex="1" parent="1">
          <mxGeometry x="200" y="340" width="120" height="60" as="geometry" />
        </mxCell>
        <mxCell id="cHA2GrPYjUbOb7WszTmD-31" value="&lt;u&gt;F_number&lt;/u&gt;" style="ellipse;whiteSpace=wrap;html=1;" vertex="1" parent="1">
          <mxGeometry x="170" y="230" width="80" height="50" as="geometry" />
        </mxCell>
        <mxCell id="cHA2GrPYjUbOb7WszTmD-32" value="N_blocks" style="ellipse;whiteSpace=wrap;html=1;" vertex="1" parent="1">
          <mxGeometry x="270" y="230" width="80" height="50" as="geometry" />
        </mxCell>
        <mxCell id="cHA2GrPYjUbOb7WszTmD-33" style="edgeStyle=orthogonalEdgeStyle;rounded=0;orthogonalLoop=1;jettySize=auto;html=1;entryX=0.133;entryY=0.067;entryDx=0;entryDy=0;entryPerimeter=0;" edge="1" parent="1" source="cHA2GrPYjUbOb7WszTmD-31" target="cHA2GrPYjUbOb7WszTmD-30">
          <mxGeometry relative="1" as="geometry" />
        </mxCell>
        <mxCell id="cHA2GrPYjUbOb7WszTmD-34" style="edgeStyle=orthogonalEdgeStyle;rounded=0;orthogonalLoop=1;jettySize=auto;html=1;entryX=0.808;entryY=-0.017;entryDx=0;entryDy=0;entryPerimeter=0;" edge="1" parent="1" target="cHA2GrPYjUbOb7WszTmD-30">
          <mxGeometry relative="1" as="geometry">
            <mxPoint x="300" y="280" as="sourcePoint" />
          </mxGeometry>
        </mxCell>
        <mxCell id="cHA2GrPYjUbOb7WszTmD-35" value="User" style="rounded=0;whiteSpace=wrap;html=1;" vertex="1" parent="1">
          <mxGeometry x="-490" y="595" width="120" height="60" as="geometry" />
        </mxCell>
        <mxCell id="cHA2GrPYjUbOb7WszTmD-45" style="edgeStyle=orthogonalEdgeStyle;rounded=0;orthogonalLoop=1;jettySize=auto;html=1;entryX=0;entryY=0.5;entryDx=0;entryDy=0;" edge="1" parent="1" source="cHA2GrPYjUbOb7WszTmD-36" target="cHA2GrPYjUbOb7WszTmD-35">
          <mxGeometry relative="1" as="geometry" />
        </mxCell>
        <mxCell id="cHA2GrPYjUbOb7WszTmD-36" value="&lt;u&gt;SSN&lt;/u&gt;" style="ellipse;whiteSpace=wrap;html=1;" vertex="1" parent="1">
          <mxGeometry x="-640" y="595" width="80" height="50" as="geometry" />
        </mxCell>
        <mxCell id="cHA2GrPYjUbOb7WszTmD-46" style="edgeStyle=orthogonalEdgeStyle;rounded=0;orthogonalLoop=1;jettySize=auto;html=1;entryX=0;entryY=0.75;entryDx=0;entryDy=0;" edge="1" parent="1" source="cHA2GrPYjUbOb7WszTmD-37" target="cHA2GrPYjUbOb7WszTmD-35">
          <mxGeometry relative="1" as="geometry" />
        </mxCell>
        <mxCell id="cHA2GrPYjUbOb7WszTmD-37" value="Name" style="ellipse;whiteSpace=wrap;html=1;" vertex="1" parent="1">
          <mxGeometry x="-640" y="665" width="80" height="50" as="geometry" />
        </mxCell>
        <mxCell id="cHA2GrPYjUbOb7WszTmD-44" style="edgeStyle=orthogonalEdgeStyle;rounded=0;orthogonalLoop=1;jettySize=auto;html=1;entryX=0;entryY=0.25;entryDx=0;entryDy=0;" edge="1" parent="1" source="cHA2GrPYjUbOb7WszTmD-38" target="cHA2GrPYjUbOb7WszTmD-35">
          <mxGeometry relative="1" as="geometry" />
        </mxCell>
        <mxCell id="cHA2GrPYjUbOb7WszTmD-38" value="Email" style="ellipse;whiteSpace=wrap;html=1;" vertex="1" parent="1">
          <mxGeometry x="-640" y="525" width="80" height="50" as="geometry" />
        </mxCell>
        <mxCell id="cHA2GrPYjUbOb7WszTmD-43" style="edgeStyle=orthogonalEdgeStyle;rounded=0;orthogonalLoop=1;jettySize=auto;html=1;entryX=0.25;entryY=1;entryDx=0;entryDy=0;" edge="1" parent="1" source="cHA2GrPYjUbOb7WszTmD-39" target="cHA2GrPYjUbOb7WszTmD-35">
          <mxGeometry relative="1" as="geometry" />
        </mxCell>
        <mxCell id="cHA2GrPYjUbOb7WszTmD-39" value="Phones" style="ellipse;whiteSpace=wrap;html=1;" vertex="1" parent="1">
          <mxGeometry x="-500" y="700" width="80" height="50" as="geometry" />
        </mxCell>
        <mxCell id="cHA2GrPYjUbOb7WszTmD-108" style="edgeStyle=orthogonalEdgeStyle;rounded=0;orthogonalLoop=1;jettySize=auto;html=1;entryX=0.5;entryY=0;entryDx=0;entryDy=0;shape=link;" edge="1" parent="1" source="cHA2GrPYjUbOb7WszTmD-47" target="cHA2GrPYjUbOb7WszTmD-107">
          <mxGeometry relative="1" as="geometry" />
        </mxCell>
        <mxCell id="cHA2GrPYjUbOb7WszTmD-111" style="edgeStyle=orthogonalEdgeStyle;rounded=0;orthogonalLoop=1;jettySize=auto;html=1;entryX=1;entryY=0.5;entryDx=0;entryDy=0;shape=link;" edge="1" parent="1" source="cHA2GrPYjUbOb7WszTmD-47" target="cHA2GrPYjUbOb7WszTmD-110">
          <mxGeometry relative="1" as="geometry" />
        </mxCell>
        <mxCell id="cHA2GrPYjUbOb7WszTmD-124" style="edgeStyle=orthogonalEdgeStyle;rounded=0;orthogonalLoop=1;jettySize=auto;html=1;entryX=0;entryY=0.5;entryDx=0;entryDy=0;shape=link;" edge="1" parent="1" source="cHA2GrPYjUbOb7WszTmD-47" target="cHA2GrPYjUbOb7WszTmD-116">
          <mxGeometry relative="1" as="geometry" />
        </mxCell>
        <mxCell id="cHA2GrPYjUbOb7WszTmD-127" style="edgeStyle=orthogonalEdgeStyle;rounded=0;orthogonalLoop=1;jettySize=auto;html=1;entryX=0.5;entryY=0;entryDx=0;entryDy=0;shape=link;" edge="1" parent="1" source="cHA2GrPYjUbOb7WszTmD-47" target="cHA2GrPYjUbOb7WszTmD-113">
          <mxGeometry relative="1" as="geometry">
            <Array as="points">
              <mxPoint x="150" y="645" />
            </Array>
          </mxGeometry>
        </mxCell>
        <mxCell id="cHA2GrPYjUbOb7WszTmD-47" value="Book" style="rounded=0;whiteSpace=wrap;html=1;" vertex="1" parent="1">
          <mxGeometry x="270" y="595" width="120" height="60" as="geometry" />
        </mxCell>
        <mxCell id="cHA2GrPYjUbOb7WszTmD-52" style="edgeStyle=orthogonalEdgeStyle;rounded=0;orthogonalLoop=1;jettySize=auto;html=1;entryX=1;entryY=0.25;entryDx=0;entryDy=0;" edge="1" parent="1" source="cHA2GrPYjUbOb7WszTmD-48" target="cHA2GrPYjUbOb7WszTmD-47">
          <mxGeometry relative="1" as="geometry">
            <Array as="points">
              <mxPoint x="420" y="595" />
              <mxPoint x="410" y="595" />
              <mxPoint x="410" y="610" />
            </Array>
          </mxGeometry>
        </mxCell>
        <mxCell id="cHA2GrPYjUbOb7WszTmD-48" value="Title" style="ellipse;whiteSpace=wrap;html=1;" vertex="1" parent="1">
          <mxGeometry x="420" y="525" width="80" height="50" as="geometry" />
        </mxCell>
        <mxCell id="cHA2GrPYjUbOb7WszTmD-53" style="edgeStyle=orthogonalEdgeStyle;rounded=0;orthogonalLoop=1;jettySize=auto;html=1;entryX=1;entryY=0.75;entryDx=0;entryDy=0;" edge="1" parent="1" source="cHA2GrPYjUbOb7WszTmD-50" target="cHA2GrPYjUbOb7WszTmD-47">
          <mxGeometry relative="1" as="geometry" />
        </mxCell>
        <mxCell id="cHA2GrPYjUbOb7WszTmD-50" value="&lt;u&gt;id&lt;/u&gt;" style="ellipse;whiteSpace=wrap;html=1;" vertex="1" parent="1">
          <mxGeometry x="420" y="655" width="80" height="50" as="geometry" />
        </mxCell>
        <mxCell id="cHA2GrPYjUbOb7WszTmD-54" value="author" style="rounded=0;whiteSpace=wrap;html=1;" vertex="1" parent="1">
          <mxGeometry x="270" y="835" width="120" height="60" as="geometry" />
        </mxCell>
        <mxCell id="cHA2GrPYjUbOb7WszTmD-55" value="publisher" style="rounded=0;whiteSpace=wrap;html=1;" vertex="1" parent="1">
          <mxGeometry x="-180" y="595" width="120" height="60" as="geometry" />
        </mxCell>
        <mxCell id="cHA2GrPYjUbOb7WszTmD-129" style="edgeStyle=orthogonalEdgeStyle;rounded=0;orthogonalLoop=1;jettySize=auto;html=1;entryX=0;entryY=0.25;entryDx=0;entryDy=0;" edge="1" parent="1" source="cHA2GrPYjUbOb7WszTmD-56" target="cHA2GrPYjUbOb7WszTmD-55">
          <mxGeometry relative="1" as="geometry" />
        </mxCell>
        <mxCell id="cHA2GrPYjUbOb7WszTmD-56" value="&lt;u&gt;id&lt;/u&gt;" style="ellipse;whiteSpace=wrap;html=1;" vertex="1" parent="1">
          <mxGeometry x="-310" y="575" width="80" height="50" as="geometry" />
        </mxCell>
        <mxCell id="cHA2GrPYjUbOb7WszTmD-130" style="edgeStyle=orthogonalEdgeStyle;rounded=0;orthogonalLoop=1;jettySize=auto;html=1;entryX=0;entryY=0.75;entryDx=0;entryDy=0;" edge="1" parent="1" source="cHA2GrPYjUbOb7WszTmD-57" target="cHA2GrPYjUbOb7WszTmD-55">
          <mxGeometry relative="1" as="geometry" />
        </mxCell>
        <mxCell id="cHA2GrPYjUbOb7WszTmD-57" value="Name" style="ellipse;whiteSpace=wrap;html=1;" vertex="1" parent="1">
          <mxGeometry x="-300" y="645" width="80" height="50" as="geometry" />
        </mxCell>
        <mxCell id="cHA2GrPYjUbOb7WszTmD-64" style="edgeStyle=orthogonalEdgeStyle;rounded=0;orthogonalLoop=1;jettySize=auto;html=1;entryX=1;entryY=0.25;entryDx=0;entryDy=0;" edge="1" parent="1" source="cHA2GrPYjUbOb7WszTmD-60" target="cHA2GrPYjUbOb7WszTmD-54">
          <mxGeometry relative="1" as="geometry" />
        </mxCell>
        <mxCell id="cHA2GrPYjUbOb7WszTmD-60" value="&lt;u&gt;id&lt;/u&gt;" style="ellipse;whiteSpace=wrap;html=1;" vertex="1" parent="1">
          <mxGeometry x="470" y="805" width="80" height="50" as="geometry" />
        </mxCell>
        <mxCell id="cHA2GrPYjUbOb7WszTmD-65" style="edgeStyle=orthogonalEdgeStyle;rounded=0;orthogonalLoop=1;jettySize=auto;html=1;entryX=1;entryY=0.75;entryDx=0;entryDy=0;" edge="1" parent="1" source="cHA2GrPYjUbOb7WszTmD-61" target="cHA2GrPYjUbOb7WszTmD-54">
          <mxGeometry relative="1" as="geometry" />
        </mxCell>
        <mxCell id="cHA2GrPYjUbOb7WszTmD-61" value="Name" style="ellipse;whiteSpace=wrap;html=1;" vertex="1" parent="1">
          <mxGeometry x="480" y="905" width="80" height="50" as="geometry" />
        </mxCell>
        <mxCell id="cHA2GrPYjUbOb7WszTmD-66" value="Category" style="rounded=0;whiteSpace=wrap;html=1;" vertex="1" parent="1">
          <mxGeometry x="40" y="815" width="120" height="60" as="geometry" />
        </mxCell>
        <mxCell id="cHA2GrPYjUbOb7WszTmD-70" style="edgeStyle=orthogonalEdgeStyle;rounded=0;orthogonalLoop=1;jettySize=auto;html=1;entryX=0;entryY=0.5;entryDx=0;entryDy=0;" edge="1" parent="1" source="cHA2GrPYjUbOb7WszTmD-67" target="cHA2GrPYjUbOb7WszTmD-66">
          <mxGeometry relative="1" as="geometry" />
        </mxCell>
        <mxCell id="cHA2GrPYjUbOb7WszTmD-67" value="&lt;u&gt;id&lt;/u&gt;" style="ellipse;whiteSpace=wrap;html=1;" vertex="1" parent="1">
          <mxGeometry x="-100" y="785" width="80" height="50" as="geometry" />
        </mxCell>
        <mxCell id="cHA2GrPYjUbOb7WszTmD-69" value="Cat_name" style="ellipse;whiteSpace=wrap;html=1;" vertex="1" parent="1">
          <mxGeometry x="-110" y="877.5" width="80" height="50" as="geometry" />
        </mxCell>
        <mxCell id="cHA2GrPYjUbOb7WszTmD-72" style="edgeStyle=orthogonalEdgeStyle;rounded=0;orthogonalLoop=1;jettySize=auto;html=1;entryX=-0.017;entryY=0.867;entryDx=0;entryDy=0;entryPerimeter=0;" edge="1" parent="1" target="cHA2GrPYjUbOb7WszTmD-66">
          <mxGeometry relative="1" as="geometry">
            <mxPoint x="-30.000000000000455" y="900" as="sourcePoint" />
          </mxGeometry>
        </mxCell>
        <mxCell id="cHA2GrPYjUbOb7WszTmD-122" style="edgeStyle=orthogonalEdgeStyle;rounded=0;orthogonalLoop=1;jettySize=auto;html=1;entryX=1;entryY=0.5;entryDx=0;entryDy=0;shape=link;" edge="1" parent="1" source="cHA2GrPYjUbOb7WszTmD-73" target="cHA2GrPYjUbOb7WszTmD-120">
          <mxGeometry relative="1" as="geometry" />
        </mxCell>
        <mxCell id="cHA2GrPYjUbOb7WszTmD-73" value="shelf" style="rounded=0;whiteSpace=wrap;html=1;" vertex="1" parent="1">
          <mxGeometry x="615" y="460" width="120" height="60" as="geometry" />
        </mxCell>
        <mxCell id="cHA2GrPYjUbOb7WszTmD-75" style="edgeStyle=orthogonalEdgeStyle;rounded=0;orthogonalLoop=1;jettySize=auto;html=1;" edge="1" parent="1" source="cHA2GrPYjUbOb7WszTmD-74" target="cHA2GrPYjUbOb7WszTmD-73">
          <mxGeometry relative="1" as="geometry" />
        </mxCell>
        <mxCell id="cHA2GrPYjUbOb7WszTmD-74" value="&lt;u&gt;code&lt;/u&gt;" style="ellipse;whiteSpace=wrap;html=1;" vertex="1" parent="1">
          <mxGeometry x="770" y="465" width="80" height="50" as="geometry" />
        </mxCell>
        <mxCell id="cHA2GrPYjUbOb7WszTmD-76" value="supervisor" style="rhombus;whiteSpace=wrap;html=1;" vertex="1" parent="1">
          <mxGeometry x="-90" y="190" width="80" height="80" as="geometry" />
        </mxCell>
        <mxCell id="cHA2GrPYjUbOb7WszTmD-81" style="edgeStyle=orthogonalEdgeStyle;rounded=0;orthogonalLoop=1;jettySize=auto;html=1;entryX=0;entryY=0.5;entryDx=0;entryDy=0;" edge="1" parent="1" source="cHA2GrPYjUbOb7WszTmD-80" target="cHA2GrPYjUbOb7WszTmD-30">
          <mxGeometry relative="1" as="geometry" />
        </mxCell>
        <mxCell id="cHA2GrPYjUbOb7WszTmD-80" value="manage" style="rhombus;whiteSpace=wrap;html=1;" vertex="1" parent="1">
          <mxGeometry x="-100" y="290" width="80" height="80" as="geometry" />
        </mxCell>
        <mxCell id="cHA2GrPYjUbOb7WszTmD-83" style="edgeStyle=orthogonalEdgeStyle;rounded=0;orthogonalLoop=1;jettySize=auto;html=1;entryX=1;entryY=0;entryDx=0;entryDy=0;" edge="1" parent="1" source="cHA2GrPYjUbOb7WszTmD-82" target="cHA2GrPYjUbOb7WszTmD-80">
          <mxGeometry relative="1" as="geometry" />
        </mxCell>
        <mxCell id="cHA2GrPYjUbOb7WszTmD-82" value="Hiring date" style="ellipse;whiteSpace=wrap;html=1;" vertex="1" parent="1">
          <mxGeometry y="270" width="80" height="50" as="geometry" />
        </mxCell>
        <mxCell id="cHA2GrPYjUbOb7WszTmD-89" style="edgeStyle=orthogonalEdgeStyle;rounded=0;orthogonalLoop=1;jettySize=auto;html=1;entryX=0;entryY=0.75;entryDx=0;entryDy=0;strokeWidth=1;" edge="1" parent="1" source="cHA2GrPYjUbOb7WszTmD-84" target="cHA2GrPYjUbOb7WszTmD-30">
          <mxGeometry relative="1" as="geometry">
            <Array as="points">
              <mxPoint x="140" y="440" />
              <mxPoint x="140" y="385" />
            </Array>
          </mxGeometry>
        </mxCell>
        <mxCell id="cHA2GrPYjUbOb7WszTmD-84" value="work" style="rhombus;whiteSpace=wrap;html=1;" vertex="1" parent="1">
          <mxGeometry x="-90" y="400" width="80" height="80" as="geometry" />
        </mxCell>
        <mxCell id="cHA2GrPYjUbOb7WszTmD-96" style="edgeStyle=orthogonalEdgeStyle;rounded=0;orthogonalLoop=1;jettySize=auto;html=1;entryX=0.5;entryY=0;entryDx=0;entryDy=0;shape=link;" edge="1" parent="1" source="cHA2GrPYjUbOb7WszTmD-93" target="cHA2GrPYjUbOb7WszTmD-35">
          <mxGeometry relative="1" as="geometry" />
        </mxCell>
        <mxCell id="cHA2GrPYjUbOb7WszTmD-93" value="record" style="rhombus;whiteSpace=wrap;html=1;" vertex="1" parent="1">
          <mxGeometry x="-430" y="435" width="80" height="80" as="geometry" />
        </mxCell>
        <mxCell id="cHA2GrPYjUbOb7WszTmD-97" value="borrowd book" style="rounded=0;whiteSpace=wrap;html=1;" vertex="1" parent="1">
          <mxGeometry x="-740" y="325" width="120" height="60" as="geometry" />
        </mxCell>
        <mxCell id="cHA2GrPYjUbOb7WszTmD-103" style="edgeStyle=orthogonalEdgeStyle;rounded=0;orthogonalLoop=1;jettySize=auto;html=1;" edge="1" parent="1" source="cHA2GrPYjUbOb7WszTmD-98" target="cHA2GrPYjUbOb7WszTmD-97">
          <mxGeometry relative="1" as="geometry" />
        </mxCell>
        <mxCell id="cHA2GrPYjUbOb7WszTmD-98" value="Date_borrowed" style="ellipse;whiteSpace=wrap;html=1;" vertex="1" parent="1">
          <mxGeometry x="-730" y="245" width="80" height="50" as="geometry" />
        </mxCell>
        <mxCell id="cHA2GrPYjUbOb7WszTmD-101" style="edgeStyle=orthogonalEdgeStyle;rounded=0;orthogonalLoop=1;jettySize=auto;html=1;" edge="1" parent="1" source="cHA2GrPYjUbOb7WszTmD-99" target="cHA2GrPYjUbOb7WszTmD-97">
          <mxGeometry relative="1" as="geometry" />
        </mxCell>
        <mxCell id="cHA2GrPYjUbOb7WszTmD-99" value="Due_date" style="ellipse;whiteSpace=wrap;html=1;" vertex="1" parent="1">
          <mxGeometry x="-850" y="325" width="80" height="50" as="geometry" />
        </mxCell>
        <mxCell id="cHA2GrPYjUbOb7WszTmD-102" style="edgeStyle=orthogonalEdgeStyle;rounded=0;orthogonalLoop=1;jettySize=auto;html=1;entryX=0;entryY=0.25;entryDx=0;entryDy=0;" edge="1" parent="1" source="cHA2GrPYjUbOb7WszTmD-100" target="cHA2GrPYjUbOb7WszTmD-97">
          <mxGeometry relative="1" as="geometry" />
        </mxCell>
        <mxCell id="cHA2GrPYjUbOb7WszTmD-100" value="money" style="ellipse;whiteSpace=wrap;html=1;" vertex="1" parent="1">
          <mxGeometry x="-850" y="245" width="80" height="50" as="geometry" />
        </mxCell>
        <mxCell id="cHA2GrPYjUbOb7WszTmD-106" style="edgeStyle=orthogonalEdgeStyle;rounded=0;orthogonalLoop=1;jettySize=auto;html=1;shape=link;" edge="1" parent="1" source="cHA2GrPYjUbOb7WszTmD-104" target="cHA2GrPYjUbOb7WszTmD-97">
          <mxGeometry relative="1" as="geometry" />
        </mxCell>
        <mxCell id="cHA2GrPYjUbOb7WszTmD-104" value="recorrd" style="rhombus;whiteSpace=wrap;html=1;" vertex="1" parent="1">
          <mxGeometry x="-570" y="305" width="80" height="80" as="geometry" />
        </mxCell>
        <mxCell id="cHA2GrPYjUbOb7WszTmD-109" style="edgeStyle=orthogonalEdgeStyle;rounded=0;orthogonalLoop=1;jettySize=auto;html=1;entryX=0.5;entryY=0;entryDx=0;entryDy=0;" edge="1" parent="1" source="cHA2GrPYjUbOb7WszTmD-107" target="cHA2GrPYjUbOb7WszTmD-54">
          <mxGeometry relative="1" as="geometry" />
        </mxCell>
        <mxCell id="cHA2GrPYjUbOb7WszTmD-107" value="has" style="rhombus;whiteSpace=wrap;html=1;" vertex="1" parent="1">
          <mxGeometry x="290" y="705" width="80" height="80" as="geometry" />
        </mxCell>
        <mxCell id="cHA2GrPYjUbOb7WszTmD-112" style="edgeStyle=orthogonalEdgeStyle;rounded=0;orthogonalLoop=1;jettySize=auto;html=1;entryX=1;entryY=0.5;entryDx=0;entryDy=0;" edge="1" parent="1" source="cHA2GrPYjUbOb7WszTmD-110" target="cHA2GrPYjUbOb7WszTmD-55">
          <mxGeometry relative="1" as="geometry" />
        </mxCell>
        <mxCell id="cHA2GrPYjUbOb7WszTmD-110" value="has" style="rhombus;whiteSpace=wrap;html=1;" vertex="1" parent="1">
          <mxGeometry x="-20" y="585" width="80" height="80" as="geometry" />
        </mxCell>
        <mxCell id="cHA2GrPYjUbOb7WszTmD-128" style="edgeStyle=orthogonalEdgeStyle;rounded=0;orthogonalLoop=1;jettySize=auto;html=1;entryX=0.5;entryY=0;entryDx=0;entryDy=0;" edge="1" parent="1" source="cHA2GrPYjUbOb7WszTmD-113" target="cHA2GrPYjUbOb7WszTmD-66">
          <mxGeometry relative="1" as="geometry" />
        </mxCell>
        <mxCell id="cHA2GrPYjUbOb7WszTmD-113" value="classifed" style="rhombus;whiteSpace=wrap;html=1;" vertex="1" parent="1">
          <mxGeometry x="110" y="675" width="80" height="80" as="geometry" />
        </mxCell>
        <mxCell id="cHA2GrPYjUbOb7WszTmD-125" style="edgeStyle=orthogonalEdgeStyle;rounded=0;orthogonalLoop=1;jettySize=auto;html=1;entryX=0.5;entryY=1;entryDx=0;entryDy=0;" edge="1" parent="1" source="cHA2GrPYjUbOb7WszTmD-116" target="cHA2GrPYjUbOb7WszTmD-73">
          <mxGeometry relative="1" as="geometry" />
        </mxCell>
        <mxCell id="cHA2GrPYjUbOb7WszTmD-116" value="assigned" style="rhombus;whiteSpace=wrap;html=1;" vertex="1" parent="1">
          <mxGeometry x="640" y="585" width="80" height="80" as="geometry" />
        </mxCell>
        <mxCell id="cHA2GrPYjUbOb7WszTmD-123" style="edgeStyle=orthogonalEdgeStyle;rounded=0;orthogonalLoop=1;jettySize=auto;html=1;entryX=1;entryY=0.25;entryDx=0;entryDy=0;" edge="1" parent="1" source="cHA2GrPYjUbOb7WszTmD-120" target="cHA2GrPYjUbOb7WszTmD-30">
          <mxGeometry relative="1" as="geometry" />
        </mxCell>
        <mxCell id="cHA2GrPYjUbOb7WszTmD-120" value="located" style="rhombus;whiteSpace=wrap;html=1;" vertex="1" parent="1">
          <mxGeometry x="440" y="390" width="80" height="80" as="geometry" />
        </mxCell>
        <mxCell id="cHA2GrPYjUbOb7WszTmD-135" value="1" style="text;html=1;align=center;verticalAlign=middle;whiteSpace=wrap;rounded=0;" vertex="1" parent="1">
          <mxGeometry x="-120" y="200" width="60" height="30" as="geometry" />
        </mxCell>
        <mxCell id="cHA2GrPYjUbOb7WszTmD-136" value="1" style="text;html=1;align=center;verticalAlign=middle;whiteSpace=wrap;rounded=0;" vertex="1" parent="1">
          <mxGeometry x="-130" y="230" width="60" height="30" as="geometry" />
        </mxCell>
        <mxCell id="cHA2GrPYjUbOb7WszTmD-137" style="edgeStyle=orthogonalEdgeStyle;rounded=0;orthogonalLoop=1;jettySize=auto;html=1;entryX=1.027;entryY=0.198;entryDx=0;entryDy=0;entryPerimeter=0;" edge="1" parent="1" source="cHA2GrPYjUbOb7WszTmD-76" target="cHA2GrPYjUbOb7WszTmD-1">
          <mxGeometry relative="1" as="geometry">
            <Array as="points">
              <mxPoint x="-170" y="220" />
              <mxPoint x="-170" y="222" />
            </Array>
          </mxGeometry>
        </mxCell>
        <mxCell id="cHA2GrPYjUbOb7WszTmD-138" value="1" style="text;html=1;align=center;verticalAlign=middle;whiteSpace=wrap;rounded=0;" vertex="1" parent="1">
          <mxGeometry x="-40" y="325" width="60" height="30" as="geometry" />
        </mxCell>
        <mxCell id="cHA2GrPYjUbOb7WszTmD-139" value="1" style="text;html=1;align=center;verticalAlign=middle;whiteSpace=wrap;rounded=0;" vertex="1" parent="1">
          <mxGeometry x="-150" y="330" width="60" height="30" as="geometry" />
        </mxCell>
        <mxCell id="cHA2GrPYjUbOb7WszTmD-140" value="m" style="text;html=1;align=center;verticalAlign=middle;whiteSpace=wrap;rounded=0;" vertex="1" parent="1">
          <mxGeometry x="-140" y="415" width="60" height="30" as="geometry" />
        </mxCell>
        <mxCell id="cHA2GrPYjUbOb7WszTmD-141" value="1" style="text;html=1;align=center;verticalAlign=middle;whiteSpace=wrap;rounded=0;" vertex="1" parent="1">
          <mxGeometry x="-30" y="415" width="60" height="30" as="geometry" />
        </mxCell>
        <mxCell id="cHA2GrPYjUbOb7WszTmD-142" value="1" style="text;html=1;align=center;verticalAlign=middle;whiteSpace=wrap;rounded=0;" vertex="1" parent="1">
          <mxGeometry x="-410" y="405" width="60" height="30" as="geometry" />
        </mxCell>
        <mxCell id="cHA2GrPYjUbOb7WszTmD-143" value="m" style="text;html=1;align=center;verticalAlign=middle;whiteSpace=wrap;rounded=0;" vertex="1" parent="1">
          <mxGeometry x="-410" y="510" width="60" height="30" as="geometry" />
        </mxCell>
        <mxCell id="cHA2GrPYjUbOb7WszTmD-146" value="m" style="text;html=1;align=center;verticalAlign=middle;whiteSpace=wrap;rounded=0;" vertex="1" parent="1">
          <mxGeometry x="290" y="670" width="60" height="30" as="geometry" />
        </mxCell>
        <mxCell id="cHA2GrPYjUbOb7WszTmD-148" value="m" style="text;html=1;align=center;verticalAlign=middle;whiteSpace=wrap;rounded=0;" vertex="1" parent="1">
          <mxGeometry x="290" y="785" width="60" height="30" as="geometry" />
        </mxCell>
        <mxCell id="cHA2GrPYjUbOb7WszTmD-150" value="1" style="text;html=1;align=center;verticalAlign=middle;whiteSpace=wrap;rounded=0;" vertex="1" parent="1">
          <mxGeometry x="-70" y="595" width="60" height="30" as="geometry" />
        </mxCell>
        <mxCell id="cHA2GrPYjUbOb7WszTmD-151" value="m" style="text;html=1;align=center;verticalAlign=middle;whiteSpace=wrap;rounded=0;" vertex="1" parent="1">
          <mxGeometry x="50" y="595" width="60" height="30" as="geometry" />
        </mxCell>
        <mxCell id="cHA2GrPYjUbOb7WszTmD-153" value="1" style="text;html=1;align=center;verticalAlign=middle;whiteSpace=wrap;rounded=0;" vertex="1" parent="1">
          <mxGeometry x="130" y="740" width="60" height="30" as="geometry" />
        </mxCell>
        <mxCell id="cHA2GrPYjUbOb7WszTmD-154" value="m" style="text;html=1;align=center;verticalAlign=middle;whiteSpace=wrap;rounded=0;" vertex="1" parent="1">
          <mxGeometry x="130" y="645" width="60" height="30" as="geometry" />
        </mxCell>
        <mxCell id="cHA2GrPYjUbOb7WszTmD-155" value="1" style="text;html=1;align=center;verticalAlign=middle;whiteSpace=wrap;rounded=0;" vertex="1" parent="1">
          <mxGeometry x="640" y="560" width="60" height="30" as="geometry" />
        </mxCell>
        <mxCell id="cHA2GrPYjUbOb7WszTmD-156" value="m" style="text;html=1;align=center;verticalAlign=middle;whiteSpace=wrap;rounded=0;" vertex="1" parent="1">
          <mxGeometry x="590" y="595" width="60" height="30" as="geometry" />
        </mxCell>
        <mxCell id="cHA2GrPYjUbOb7WszTmD-160" value="1" style="text;html=1;align=center;verticalAlign=middle;whiteSpace=wrap;rounded=0;" vertex="1" parent="1">
          <mxGeometry x="400" y="400" width="60" height="30" as="geometry" />
        </mxCell>
        <mxCell id="cHA2GrPYjUbOb7WszTmD-161" value="m" style="text;html=1;align=center;verticalAlign=middle;whiteSpace=wrap;rounded=0;" vertex="1" parent="1">
          <mxGeometry x="570" y="465" width="60" height="30" as="geometry" />
        </mxCell>
        <mxCell id="cHA2GrPYjUbOb7WszTmD-162" value="1" style="text;html=1;align=center;verticalAlign=middle;whiteSpace=wrap;rounded=0;" vertex="1" parent="1">
          <mxGeometry x="-510" y="325" width="60" height="30" as="geometry" />
        </mxCell>
        <mxCell id="cHA2GrPYjUbOb7WszTmD-163" value="m" style="text;html=1;align=center;verticalAlign=middle;whiteSpace=wrap;rounded=0;" vertex="1" parent="1">
          <mxGeometry x="-610" y="320" width="60" height="30" as="geometry" />
        </mxCell>
        <mxCell id="cHA2GrPYjUbOb7WszTmD-165" value="" style="ellipse;whiteSpace=wrap;html=1;fillColor=none;" vertex="1" parent="1">
          <mxGeometry x="-510" y="692.5" width="100" height="65" as="geometry" />
        </mxCell>
      </root>
    </mxGraphModel>
  </diagram>
</mxfile>
